<svg xmlns="http://www.w3.org/2000/svg" xmlns:xlink="http://www.w3.org/1999/xlink" version="1.1" id="default" x="0px" y="0px" viewBox="0 0 18 18" style="enable-background:new 0 0 18 18;" xml:space="preserve"><g id="XMLID_5_"><g id="XMLID_6_"><g id="XMLID_7_"><path id="XMLID_3_" d="M3.9,11c-3.8-1-3.4-2.7-1.7-3.6c1.9-0.9,4.5-1.3,6.8-1.3c2.1,0,4,0.3,5.9,0.8c-1.9-2.1-6.5-2.5-9.8-1.8 C1.1,5.7-3.7,9.6,3.9,11"/><path id="XMLID_2_" d="M5.7,6.8l-1.5,5.9c-0.1,0.6-0.1,0.7,0.3,0.6c1.5,0,2.9,0,4.4,0c2.6-0.1,3.9-0.6,5-1.6 c0.9-0.8,1.8-3.2,0.9-4c-0.7-0.5-2-0.8-2.9-0.9c-0.2,0-0.1,0-0.1,0.1c0.6,0.6,0.8,1.3,0.6,2.3c-0.2,0.9-1.1,2.7-4.7,2.2 c-0.1,0-0.2-0.1-0.1-0.5c0.3-1.5,0.7-2.9,1-4.4c0.1,0,0,0,0,0C8,6.5,6.7,6.5,6,6.6C5.9,6.6,5.8,6.6,5.7,6.8"/><path id="XMLID_1_" d="M15.5,7.1C17.3,7.4,18.1,8,18,8.6c-0.1,0.6-1.1,1-2.7,1.4l0,0C17.8,9,17.9,8.1,15.5,7.1 C15.4,7.1,15.4,7.1,15.5,7.1"/></g></g></g></svg>