<svg xmlns="http://www.w3.org/2000/svg" xmlns:xlink="http://www.w3.org/1999/xlink" version="1.1" id="default" x="0px" y="0px" viewBox="0 0 18 18" style="enable-background:new 0 0 18 18;" xml:space="preserve"><g><path d="M14.2,3.7c-2.9-2.8-7.6-2.8-10.5,0c-2.8,2.7-2.9,7-0.3,9.9l0.1,0.1c-0.3,0.6-0.8,1.3-1.5,1.7c-0.3,0.1-0.2,0.5,0.1,0.5 c0.8,0.1,2,0,3.1-0.8l0,0c2.8,1.6,6.5,1.2,9-1.1C17.1,11.1,17.1,6.5,14.2,3.7z M11.4,11.9c-0.2,0.2-0.3,0.3-0.5,0.5 c-0.2,0.2-0.5,0.3-0.8,0.3c-0.5,0-0.9-0.2-1.3-0.4c-0.9-0.4-1.7-1-2.4-1.8C5.9,9.9,5.5,9.3,5.3,8.6C5.1,8.3,5,7.9,5.1,7.6 c0-0.2,0.1-0.4,0.3-0.6c0.2-0.2,0.4-0.3,0.5-0.5c0.2-0.2,0.5-0.2,0.8,0c0.1,0.1,0.3,0.3,0.4,0.4C7.2,7,7.4,7.2,7.5,7.3 c0.2,0.2,0.2,0.5,0,0.8C7.3,8.2,7.2,8.4,7,8.6c0,0-0.1,0.1,0,0.1C7.1,9,7.2,9.2,7.4,9.5c0.4,0.5,0.8,0.9,1.3,1.2 c0.1,0.1,0.2,0.1,0.4,0.2c0.1,0,0.1,0,0.1,0c0.2-0.2,0.4-0.3,0.5-0.5c0.2-0.2,0.5-0.2,0.8,0c0.3,0.3,0.6,0.6,0.9,0.8 C11.7,11.4,11.7,11.7,11.4,11.9z M8.7,7.2l0.1-0.6C9.4,6.7,10,7,10.5,7.4c0.4,0.4,0.7,1,0.8,1.5l-0.7,0.1c-0.1-0.5-0.3-0.9-0.6-1.2 C9.6,7.5,9.2,7.3,8.7,7.2z M12.4,8.9c-0.1-0.8-0.6-1.6-1.2-2.2c-0.7-0.6-1.5-1-2.4-1.2l0.1-0.6c1.1,0.1,2,0.6,2.8,1.3 C12.4,7,12.8,7.9,13,8.8L12.4,8.9z"/></g></svg>