<svg id="svg" version="1.1" width="400" height="400" viewBox="0 0 400 400" xmlns="http://www.w3.org/2000/svg" xmlns:xlink="http://www.w3.org/1999/xlink" ><g id="svgg"><path id="path0" d="M136.333 55.996 C 136.260 56.214,135.075 56.510,133.700 56.653 C 132.325 56.797,131.200 57.049,131.200 57.214 C 131.200 57.378,130.728 57.632,130.152 57.776 C 128.823 58.110,128.110 58.823,127.776 60.152 C 127.632 60.728,127.353 61.200,127.157 61.200 C 126.960 61.200,126.798 61.785,126.795 62.500 C 126.782 65.478,126.639 65.600,123.153 65.600 C 121.318 65.600,120.000 65.767,120.000 66.000 C 120.000 66.220,119.473 66.400,118.829 66.400 C 117.335 66.400,116.400 67.335,116.400 68.829 C 116.400 69.473,116.220 70.000,116.000 70.000 C 115.767 70.000,115.600 71.314,115.600 73.142 L 115.600 76.285 112.540 76.516 C 110.857 76.643,109.372 76.907,109.240 77.103 C 109.108 77.298,108.685 77.575,108.300 77.717 C 107.915 77.859,107.600 78.236,107.600 78.554 C 107.600 78.873,107.409 79.197,107.176 79.275 C 106.943 79.352,106.647 80.807,106.518 82.508 C 106.390 84.209,106.131 85.600,105.942 85.600 C 105.754 85.600,105.600 110.800,105.600 141.600 C 105.600 173.390,105.752 197.600,105.950 197.600 C 106.143 197.600,106.380 198.549,106.476 199.708 C 106.651 201.825,107.660 203.600,108.689 203.600 C 108.970 203.600,109.200 203.780,109.200 204.000 C 109.200 204.220,109.805 204.400,110.544 204.400 C 111.283 204.400,112.723 204.514,113.744 204.654 L 115.600 204.909 115.600 217.054 C 115.600 224.885,115.742 229.200,116.000 229.200 C 116.220 229.200,116.400 229.894,116.400 230.742 C 116.400 233.446,117.638 234.314,121.965 234.640 L 125.600 234.915 125.600 243.657 C 125.600 248.510,125.759 252.400,125.957 252.400 C 126.153 252.400,126.421 252.828,126.552 253.352 C 126.854 254.556,127.745 254.788,132.100 254.795 L 135.600 254.800 135.600 263.400 C 135.600 268.130,135.758 272.000,135.950 272.000 C 136.143 272.000,136.403 272.515,136.529 273.144 C 136.796 274.482,137.941 274.788,142.700 274.796 L 145.600 274.800 145.600 279.800 C 145.600 282.550,145.759 284.800,145.953 284.800 C 146.147 284.800,146.433 286.150,146.587 287.800 C 146.742 289.450,147.033 290.800,147.234 290.800 C 147.435 290.800,147.600 291.030,147.600 291.311 C 147.600 292.180,149.241 293.282,150.858 293.499 C 151.706 293.612,152.400 293.862,152.400 294.053 C 152.400 294.244,153.120 294.400,154.000 294.400 L 155.600 294.400 155.600 298.400 C 155.600 300.600,155.760 302.400,155.957 302.400 C 156.153 302.400,156.421 302.828,156.552 303.352 C 156.854 304.556,157.745 304.788,162.100 304.795 L 165.600 304.800 165.600 308.995 C 165.600 314.752,165.647 314.800,171.289 314.800 L 175.600 314.800 175.600 319.557 C 175.600 325.170,175.219 324.800,180.990 324.800 C 185.879 324.800,185.600 324.474,185.600 330.190 C 185.600 335.079,185.274 334.800,190.990 334.800 C 195.879 334.800,195.600 334.474,195.600 340.190 C 195.600 345.094,195.241 344.800,201.233 344.800 L 205.600 344.800 205.600 349.000 C 205.600 351.533,205.759 353.200,206.000 353.200 C 206.220 353.200,206.400 353.462,206.400 353.782 C 206.400 354.793,208.161 354.834,246.029 354.716 C 285.483 354.592,284.400 354.646,284.400 352.829 C 284.400 352.593,284.580 352.400,284.800 352.400 C 285.039 352.400,285.200 350.867,285.200 348.600 L 285.200 344.800 289.339 344.800 C 295.079 344.800,295.200 344.682,295.200 339.053 L 295.200 334.800 299.371 334.800 C 305.488 334.800,304.851 338.250,304.715 305.856 C 304.587 275.048,304.716 276.400,301.911 276.400 C 301.300 276.400,300.800 276.220,300.800 276.000 C 300.800 275.771,299.600 275.600,298.000 275.600 L 295.200 275.600 295.200 272.200 C 295.200 270.200,295.035 268.800,294.800 268.800 C 294.580 268.800,294.400 268.346,294.400 267.790 C 294.400 266.988,294.153 266.731,293.200 266.540 C 292.540 266.408,292.000 266.143,292.000 265.950 C 292.000 265.757,290.470 265.600,288.600 265.600 L 285.200 265.600 285.200 262.200 C 285.200 260.200,285.035 258.800,284.800 258.800 C 284.580 258.800,284.400 258.346,284.400 257.790 C 284.400 256.988,284.153 256.731,283.200 256.540 C 282.540 256.408,282.000 256.142,282.000 255.950 C 282.000 255.757,280.470 255.600,278.600 255.600 L 275.200 255.600 275.200 252.800 C 275.200 251.200,275.029 250.000,274.800 250.000 C 274.580 250.000,274.400 249.552,274.400 249.005 C 274.400 247.618,273.236 246.400,271.911 246.400 C 271.300 246.400,270.800 246.220,270.800 246.000 C 270.800 245.737,261.267 245.600,243.000 245.600 L 215.200 245.600 215.200 241.227 C 215.200 237.205,215.136 236.834,214.400 236.600 C 213.960 236.460,213.600 236.178,213.600 235.973 C 213.600 235.767,211.824 235.600,209.643 235.600 C 204.793 235.600,205.200 236.482,205.200 225.967 C 205.200 220.656,205.054 217.600,204.800 217.600 C 204.580 217.600,204.400 217.330,204.400 217.000 C 204.400 216.670,204.130 216.400,203.800 216.400 C 203.470 216.400,203.200 216.220,203.200 216.000 C 203.200 215.760,201.600 215.600,199.200 215.600 L 195.200 215.600 195.200 205.000 C 195.200 198.200,195.057 194.400,194.800 194.400 C 194.580 194.400,194.400 193.410,194.400 192.200 C 194.400 190.990,194.220 190.000,194.000 190.000 C 193.780 190.000,193.600 189.590,193.600 189.089 C 193.600 187.548,192.148 186.704,189.127 186.488 C 187.627 186.380,186.400 186.137,186.400 185.946 C 186.400 185.756,186.130 185.600,185.800 185.600 C 185.282 185.600,185.200 184.185,185.200 175.261 L 185.200 164.921 193.056 164.694 C 197.377 164.568,201.022 164.295,201.156 164.087 C 201.290 163.878,201.805 163.582,202.299 163.427 C 202.794 163.273,203.308 162.709,203.442 162.173 C 203.577 161.638,203.847 161.200,204.043 161.200 C 204.240 161.200,204.400 160.210,204.400 159.000 C 204.400 157.790,204.580 156.800,204.800 156.800 C 205.020 156.800,205.200 156.376,205.200 155.859 C 205.200 154.953,205.342 154.909,208.966 154.693 C 213.113 154.445,214.400 153.760,214.400 151.800 C 214.400 151.250,214.580 150.800,214.800 150.800 C 215.064 150.800,215.200 136.867,215.200 109.800 C 215.200 82.733,215.064 68.800,214.800 68.800 C 214.580 68.800,214.400 68.346,214.400 67.790 C 214.400 66.988,214.153 66.731,213.200 66.540 C 212.540 66.408,212.000 66.142,212.000 65.950 C 212.000 65.758,210.470 65.600,208.600 65.600 L 205.200 65.600 205.200 61.600 C 205.200 59.200,205.040 57.600,204.800 57.600 C 204.580 57.600,204.400 57.330,204.400 57.000 C 204.400 56.670,204.130 56.400,203.800 56.400 C 203.470 56.400,203.200 56.220,203.200 56.000 C 203.200 55.451,136.518 55.447,136.333 55.996 " stroke="none" fill="#ffffff" fill-rule="evenodd"></path><path id="path1" d="M136.333 55.996 C 136.260 56.214,135.075 56.510,133.700 56.653 C 132.325 56.797,131.200 57.049,131.200 57.214 C 131.200 57.378,130.728 57.632,130.152 57.776 C 128.823 58.110,128.110 58.823,127.776 60.152 C 127.632 60.728,127.353 61.200,127.157 61.200 C 126.960 61.200,126.798 61.785,126.795 62.500 C 126.782 65.478,126.639 65.600,123.153 65.600 C 121.318 65.600,120.000 65.767,120.000 66.000 C 120.000 66.220,119.473 66.400,118.829 66.400 C 117.335 66.400,116.400 67.335,116.400 68.829 C 116.400 69.473,116.220 70.000,116.000 70.000 C 115.767 70.000,115.600 71.314,115.600 73.142 L 115.600 76.285 112.540 76.516 C 110.857 76.643,109.372 76.907,109.240 77.103 C 109.108 77.298,108.685 77.575,108.300 77.717 C 107.915 77.859,107.600 78.236,107.600 78.554 C 107.600 78.873,107.409 79.197,107.176 79.275 C 106.943 79.352,106.647 80.807,106.518 82.508 C 106.390 84.209,106.131 85.600,105.942 85.600 C 105.754 85.600,105.600 110.800,105.600 141.600 C 105.600 173.390,105.752 197.600,105.950 197.600 C 106.143 197.600,106.380 198.549,106.476 199.708 C 106.651 201.825,107.660 203.600,108.689 203.600 C 108.970 203.600,109.200 203.780,109.200 204.000 C 109.200 204.220,109.805 204.400,110.544 204.400 C 111.283 204.400,112.723 204.514,113.744 204.654 L 115.600 204.909 115.600 217.054 C 115.600 224.885,115.742 229.200,116.000 229.200 C 116.220 229.200,116.400 229.894,116.400 230.742 C 116.400 233.446,117.638 234.314,121.965 234.640 L 125.600 234.915 125.600 243.657 C 125.600 248.510,125.759 252.400,125.957 252.400 C 126.153 252.400,126.421 252.828,126.552 253.352 C 126.854 254.556,127.745 254.788,132.100 254.795 L 135.600 254.800 135.600 263.400 C 135.600 268.130,135.758 272.000,135.950 272.000 C 136.143 272.000,136.403 272.515,136.529 273.144 C 136.796 274.482,137.941 274.788,142.700 274.796 L 145.600 274.800 145.600 279.800 C 145.600 282.550,145.759 284.800,145.953 284.800 C 146.147 284.800,146.433 286.150,146.587 287.800 C 146.742 289.450,147.033 290.800,147.234 290.800 C 147.435 290.800,147.600 291.030,147.600 291.311 C 147.600 292.180,149.241 293.282,150.858 293.499 C 151.706 293.612,152.400 293.862,152.400 294.053 C 152.400 294.244,153.120 294.400,154.000 294.400 L 155.600 294.400 155.600 298.400 C 155.600 300.600,155.760 302.400,155.957 302.400 C 156.153 302.400,156.421 302.828,156.552 303.352 C 156.854 304.556,157.745 304.788,162.100 304.795 L 165.600 304.800 165.600 308.995 C 165.600 314.752,165.647 314.800,171.289 314.800 L 175.600 314.800 175.600 319.557 C 175.600 325.170,175.219 324.800,180.990 324.800 C 185.879 324.800,185.600 324.474,185.600 330.190 C 185.600 335.079,185.274 334.800,190.990 334.800 C 195.879 334.800,195.600 334.474,195.600 340.190 C 195.600 345.094,195.241 344.800,201.233 344.800 L 205.600 344.800 205.600 349.000 C 205.600 351.533,205.759 353.200,206.000 353.200 C 206.220 353.200,206.400 353.462,206.400 353.782 C 206.400 354.793,208.161 354.834,246.029 354.716 C 285.483 354.592,284.400 354.646,284.400 352.829 C 284.400 352.593,284.580 352.400,284.800 352.400 C 285.039 352.400,285.200 350.867,285.200 348.600 L 285.200 344.800 289.339 344.800 C 295.079 344.800,295.200 344.682,295.200 339.053 L 295.200 334.800 299.371 334.800 C 305.488 334.800,304.851 338.250,304.715 305.856 C 304.587 275.048,304.716 276.400,301.911 276.400 C 301.300 276.400,300.800 276.220,300.800 276.000 C 300.800 275.771,299.600 275.600,298.000 275.600 L 295.200 275.600 295.200 272.200 C 295.200 270.200,295.035 268.800,294.800 268.800 C 294.580 268.800,294.400 268.346,294.400 267.790 C 294.400 266.988,294.153 266.731,293.200 266.540 C 292.540 266.408,292.000 266.143,292.000 265.950 C 292.000 265.757,290.470 265.600,288.600 265.600 L 285.200 265.600 285.200 262.200 C 285.200 260.200,285.035 258.800,284.800 258.800 C 284.580 258.800,284.400 258.346,284.400 257.790 C 284.400 256.988,284.153 256.731,283.200 256.540 C 282.540 256.408,282.000 256.142,282.000 255.950 C 282.000 255.757,280.470 255.600,278.600 255.600 L 275.200 255.600 275.200 252.800 C 275.200 251.200,275.029 250.000,274.800 250.000 C 274.580 250.000,274.400 249.552,274.400 249.005 C 274.400 247.618,273.236 246.400,271.911 246.400 C 271.300 246.400,270.800 246.220,270.800 246.000 C 270.800 245.737,261.267 245.600,243.000 245.600 L 215.200 245.600 215.200 241.227 C 215.200 237.205,215.136 236.834,214.400 236.600 C 213.960 236.460,213.600 236.178,213.600 235.973 C 213.600 235.767,211.824 235.600,209.643 235.600 C 204.793 235.600,205.200 236.482,205.200 225.967 C 205.200 220.656,205.054 217.600,204.800 217.600 C 204.580 217.600,204.400 217.330,204.400 217.000 C 204.400 216.670,204.130 216.400,203.800 216.400 C 203.470 216.400,203.200 216.220,203.200 216.000 C 203.200 215.760,201.600 215.600,199.200 215.600 L 195.200 215.600 195.200 205.000 C 195.200 198.200,195.057 194.400,194.800 194.400 C 194.580 194.400,194.400 193.410,194.400 192.200 C 194.400 190.990,194.220 190.000,194.000 190.000 C 193.780 190.000,193.600 189.590,193.600 189.089 C 193.600 187.548,192.148 186.704,189.127 186.488 C 187.627 186.380,186.400 186.137,186.400 185.946 C 186.400 185.756,186.130 185.600,185.800 185.600 C 185.282 185.600,185.200 184.185,185.200 175.261 L 185.200 164.921 193.056 164.694 C 197.377 164.568,201.022 164.295,201.156 164.087 C 201.290 163.878,201.805 163.582,202.299 163.427 C 202.794 163.273,203.308 162.709,203.442 162.173 C 203.577 161.638,203.847 161.200,204.043 161.200 C 204.240 161.200,204.400 160.210,204.400 159.000 C 204.400 157.790,204.580 156.800,204.800 156.800 C 205.020 156.800,205.200 156.376,205.200 155.859 C 205.200 154.953,205.342 154.909,208.966 154.693 C 213.113 154.445,214.400 153.760,214.400 151.800 C 214.400 151.250,214.580 150.800,214.800 150.800 C 215.064 150.800,215.200 136.867,215.200 109.800 C 215.200 82.733,215.064 68.800,214.800 68.800 C 214.580 68.800,214.400 68.346,214.400 67.790 C 214.400 66.988,214.153 66.731,213.200 66.540 C 212.540 66.408,212.000 66.142,212.000 65.950 C 212.000 65.758,210.470 65.600,208.600 65.600 L 205.200 65.600 205.200 61.600 C 205.200 59.200,205.040 57.600,204.800 57.600 C 204.580 57.600,204.400 57.330,204.400 57.000 C 204.400 56.670,204.130 56.400,203.800 56.400 C 203.470 56.400,203.200 56.220,203.200 56.000 C 203.200 55.451,136.518 55.447,136.333 55.996 " stroke="none" fill="#ffffff" fill-rule="evenodd"></path><path id="path2" d="M136.333 55.996 C 136.260 56.214,135.075 56.510,133.700 56.653 C 132.325 56.797,131.200 57.049,131.200 57.214 C 131.200 57.378,130.728 57.632,130.152 57.776 C 128.823 58.110,128.110 58.823,127.776 60.152 C 127.632 60.728,127.353 61.200,127.157 61.200 C 126.960 61.200,126.798 61.785,126.795 62.500 C 126.782 65.478,126.639 65.600,123.153 65.600 C 121.318 65.600,120.000 65.767,120.000 66.000 C 120.000 66.220,119.473 66.400,118.829 66.400 C 117.335 66.400,116.400 67.335,116.400 68.829 C 116.400 69.473,116.220 70.000,116.000 70.000 C 115.767 70.000,115.600 71.314,115.600 73.142 L 115.600 76.285 112.540 76.516 C 110.857 76.643,109.372 76.907,109.240 77.103 C 109.108 77.298,108.685 77.575,108.300 77.717 C 107.915 77.859,107.600 78.236,107.600 78.554 C 107.600 78.873,107.409 79.197,107.176 79.275 C 106.943 79.352,106.647 80.807,106.518 82.508 C 106.390 84.209,106.131 85.600,105.942 85.600 C 105.754 85.600,105.600 110.800,105.600 141.600 C 105.600 173.390,105.752 197.600,105.950 197.600 C 106.143 197.600,106.380 198.549,106.476 199.708 C 106.651 201.825,107.660 203.600,108.689 203.600 C 108.970 203.600,109.200 203.780,109.200 204.000 C 109.200 204.220,109.805 204.400,110.544 204.400 C 111.283 204.400,112.723 204.514,113.744 204.654 L 115.600 204.909 115.600 217.054 C 115.600 224.885,115.742 229.200,116.000 229.200 C 116.220 229.200,116.400 229.894,116.400 230.742 C 116.400 233.446,117.638 234.314,121.965 234.640 L 125.600 234.915 125.600 243.657 C 125.600 248.510,125.759 252.400,125.957 252.400 C 126.153 252.400,126.421 252.828,126.552 253.352 C 126.854 254.556,127.745 254.788,132.100 254.795 L 135.600 254.800 135.600 263.400 C 135.600 268.130,135.758 272.000,135.950 272.000 C 136.143 272.000,136.403 272.515,136.529 273.144 C 136.796 274.482,137.941 274.788,142.700 274.796 L 145.600 274.800 145.600 279.800 C 145.600 282.550,145.759 284.800,145.953 284.800 C 146.147 284.800,146.433 286.150,146.587 287.800 C 146.742 289.450,147.033 290.800,147.234 290.800 C 147.435 290.800,147.600 291.030,147.600 291.311 C 147.600 292.180,149.241 293.282,150.858 293.499 C 151.706 293.612,152.400 293.862,152.400 294.053 C 152.400 294.244,153.120 294.400,154.000 294.400 L 155.600 294.400 155.600 298.400 C 155.600 300.600,155.760 302.400,155.957 302.400 C 156.153 302.400,156.421 302.828,156.552 303.352 C 156.854 304.556,157.745 304.788,162.100 304.795 L 165.600 304.800 165.600 308.995 C 165.600 314.752,165.647 314.800,171.289 314.800 L 175.600 314.800 175.600 319.557 C 175.600 325.170,175.219 324.800,180.990 324.800 C 185.879 324.800,185.600 324.474,185.600 330.190 C 185.600 335.079,185.274 334.800,190.990 334.800 C 195.879 334.800,195.600 334.474,195.600 340.190 C 195.600 345.094,195.241 344.800,201.233 344.800 L 205.600 344.800 205.600 349.000 C 205.600 351.533,205.759 353.200,206.000 353.200 C 206.220 353.200,206.400 353.462,206.400 353.782 C 206.400 354.793,208.161 354.834,246.029 354.716 C 285.483 354.592,284.400 354.646,284.400 352.829 C 284.400 352.593,284.580 352.400,284.800 352.400 C 285.039 352.400,285.200 350.867,285.200 348.600 L 285.200 344.800 289.339 344.800 C 295.079 344.800,295.200 344.682,295.200 339.053 L 295.200 334.800 299.371 334.800 C 305.488 334.800,304.851 338.250,304.715 305.856 C 304.587 275.048,304.716 276.400,301.911 276.400 C 301.300 276.400,300.800 276.220,300.800 276.000 C 300.800 275.771,299.600 275.600,298.000 275.600 L 295.200 275.600 295.200 272.200 C 295.200 270.200,295.035 268.800,294.800 268.800 C 294.580 268.800,294.400 268.346,294.400 267.790 C 294.400 266.988,294.153 266.731,293.200 266.540 C 292.540 266.408,292.000 266.143,292.000 265.950 C 292.000 265.757,290.470 265.600,288.600 265.600 L 285.200 265.600 285.200 262.200 C 285.200 260.200,285.035 258.800,284.800 258.800 C 284.580 258.800,284.400 258.346,284.400 257.790 C 284.400 256.988,284.153 256.731,283.200 256.540 C 282.540 256.408,282.000 256.142,282.000 255.950 C 282.000 255.757,280.470 255.600,278.600 255.600 L 275.200 255.600 275.200 252.800 C 275.200 251.200,275.029 250.000,274.800 250.000 C 274.580 250.000,274.400 249.552,274.400 249.005 C 274.400 247.618,273.236 246.400,271.911 246.400 C 271.300 246.400,270.800 246.220,270.800 246.000 C 270.800 245.737,261.267 245.600,243.000 245.600 L 215.200 245.600 215.200 241.227 C 215.200 237.205,215.136 236.834,214.400 236.600 C 213.960 236.460,213.600 236.178,213.600 235.973 C 213.600 235.767,211.824 235.600,209.643 235.600 C 204.793 235.600,205.200 236.482,205.200 225.967 C 205.200 220.656,205.054 217.600,204.800 217.600 C 204.580 217.600,204.400 217.330,204.400 217.000 C 204.400 216.670,204.130 216.400,203.800 216.400 C 203.470 216.400,203.200 216.220,203.200 216.000 C 203.200 215.760,201.600 215.600,199.200 215.600 L 195.200 215.600 195.200 205.000 C 195.200 198.200,195.057 194.400,194.800 194.400 C 194.580 194.400,194.400 193.410,194.400 192.200 C 194.400 190.990,194.220 190.000,194.000 190.000 C 193.780 190.000,193.600 189.590,193.600 189.089 C 193.600 187.548,192.148 186.704,189.127 186.488 C 187.627 186.380,186.400 186.137,186.400 185.946 C 186.400 185.756,186.130 185.600,185.800 185.600 C 185.282 185.600,185.200 184.185,185.200 175.261 L 185.200 164.921 193.056 164.694 C 197.377 164.568,201.022 164.295,201.156 164.087 C 201.290 163.878,201.805 163.582,202.299 163.427 C 202.794 163.273,203.308 162.709,203.442 162.173 C 203.577 161.638,203.847 161.200,204.043 161.200 C 204.240 161.200,204.400 160.210,204.400 159.000 C 204.400 157.790,204.580 156.800,204.800 156.800 C 205.020 156.800,205.200 156.376,205.200 155.859 C 205.200 154.953,205.342 154.909,208.966 154.693 C 213.113 154.445,214.400 153.760,214.400 151.800 C 214.400 151.250,214.580 150.800,214.800 150.800 C 215.064 150.800,215.200 136.867,215.200 109.800 C 215.200 82.733,215.064 68.800,214.800 68.800 C 214.580 68.800,214.400 68.346,214.400 67.790 C 214.400 66.988,214.153 66.731,213.200 66.540 C 212.540 66.408,212.000 66.142,212.000 65.950 C 212.000 65.758,210.470 65.600,208.600 65.600 L 205.200 65.600 205.200 61.600 C 205.200 59.200,205.040 57.600,204.800 57.600 C 204.580 57.600,204.400 57.330,204.400 57.000 C 204.400 56.670,204.130 56.400,203.800 56.400 C 203.470 56.400,203.200 56.220,203.200 56.000 C 203.200 55.451,136.518 55.447,136.333 55.996 " stroke="none" fill="#ffffff" fill-rule="evenodd"></path><path id="path3" d="M136.333 55.996 C 136.260 56.214,135.075 56.510,133.700 56.653 C 132.325 56.797,131.200 57.049,131.200 57.214 C 131.200 57.378,130.728 57.632,130.152 57.776 C 128.823 58.110,128.110 58.823,127.776 60.152 C 127.632 60.728,127.353 61.200,127.157 61.200 C 126.960 61.200,126.798 61.785,126.795 62.500 C 126.782 65.478,126.639 65.600,123.153 65.600 C 121.318 65.600,120.000 65.767,120.000 66.000 C 120.000 66.220,119.473 66.400,118.829 66.400 C 117.335 66.400,116.400 67.335,116.400 68.829 C 116.400 69.473,116.220 70.000,116.000 70.000 C 115.767 70.000,115.600 71.314,115.600 73.142 L 115.600 76.285 112.540 76.516 C 110.857 76.643,109.372 76.907,109.240 77.103 C 109.108 77.298,108.685 77.575,108.300 77.717 C 107.915 77.859,107.600 78.236,107.600 78.554 C 107.600 78.873,107.409 79.197,107.176 79.275 C 106.943 79.352,106.647 80.807,106.518 82.508 C 106.390 84.209,106.131 85.600,105.942 85.600 C 105.754 85.600,105.600 110.800,105.600 141.600 C 105.600 173.390,105.752 197.600,105.950 197.600 C 106.143 197.600,106.380 198.549,106.476 199.708 C 106.651 201.825,107.660 203.600,108.689 203.600 C 108.970 203.600,109.200 203.780,109.200 204.000 C 109.200 204.220,109.805 204.400,110.544 204.400 C 111.283 204.400,112.723 204.514,113.744 204.654 L 115.600 204.909 115.600 217.054 C 115.600 224.885,115.742 229.200,116.000 229.200 C 116.220 229.200,116.400 229.894,116.400 230.742 C 116.400 233.446,117.638 234.314,121.965 234.640 L 125.600 234.915 125.600 243.657 C 125.600 248.510,125.759 252.400,125.957 252.400 C 126.153 252.400,126.421 252.828,126.552 253.352 C 126.854 254.556,127.745 254.788,132.100 254.795 L 135.600 254.800 135.600 263.400 C 135.600 268.130,135.758 272.000,135.950 272.000 C 136.143 272.000,136.403 272.515,136.529 273.144 C 136.796 274.482,137.941 274.788,142.700 274.796 L 145.600 274.800 145.600 279.800 C 145.600 282.550,145.759 284.800,145.953 284.800 C 146.147 284.800,146.433 286.150,146.587 287.800 C 146.742 289.450,147.033 290.800,147.234 290.800 C 147.435 290.800,147.600 291.030,147.600 291.311 C 147.600 292.180,149.241 293.282,150.858 293.499 C 151.706 293.612,152.400 293.862,152.400 294.053 C 152.400 294.244,153.120 294.400,154.000 294.400 L 155.600 294.400 155.600 298.400 C 155.600 300.600,155.760 302.400,155.957 302.400 C 156.153 302.400,156.421 302.828,156.552 303.352 C 156.854 304.556,157.745 304.788,162.100 304.795 L 165.600 304.800 165.600 308.995 C 165.600 314.752,165.647 314.800,171.289 314.800 L 175.600 314.800 175.600 319.557 C 175.600 325.170,175.219 324.800,180.990 324.800 C 185.879 324.800,185.600 324.474,185.600 330.190 C 185.600 335.079,185.274 334.800,190.990 334.800 C 195.879 334.800,195.600 334.474,195.600 340.190 C 195.600 345.094,195.241 344.800,201.233 344.800 L 205.600 344.800 205.600 349.000 C 205.600 351.533,205.759 353.200,206.000 353.200 C 206.220 353.200,206.400 353.462,206.400 353.782 C 206.400 354.793,208.161 354.834,246.029 354.716 C 285.483 354.592,284.400 354.646,284.400 352.829 C 284.400 352.593,284.580 352.400,284.800 352.400 C 285.039 352.400,285.200 350.867,285.200 348.600 L 285.200 344.800 289.339 344.800 C 295.079 344.800,295.200 344.682,295.200 339.053 L 295.200 334.800 299.371 334.800 C 305.488 334.800,304.851 338.250,304.715 305.856 C 304.587 275.048,304.716 276.400,301.911 276.400 C 301.300 276.400,300.800 276.220,300.800 276.000 C 300.800 275.771,299.600 275.600,298.000 275.600 L 295.200 275.600 295.200 272.200 C 295.200 270.200,295.035 268.800,294.800 268.800 C 294.580 268.800,294.400 268.346,294.400 267.790 C 294.400 266.988,294.153 266.731,293.200 266.540 C 292.540 266.408,292.000 266.143,292.000 265.950 C 292.000 265.757,290.470 265.600,288.600 265.600 L 285.200 265.600 285.200 262.200 C 285.200 260.200,285.035 258.800,284.800 258.800 C 284.580 258.800,284.400 258.346,284.400 257.790 C 284.400 256.988,284.153 256.731,283.200 256.540 C 282.540 256.408,282.000 256.142,282.000 255.950 C 282.000 255.757,280.470 255.600,278.600 255.600 L 275.200 255.600 275.200 252.800 C 275.200 251.200,275.029 250.000,274.800 250.000 C 274.580 250.000,274.400 249.552,274.400 249.005 C 274.400 247.618,273.236 246.400,271.911 246.400 C 271.300 246.400,270.800 246.220,270.800 246.000 C 270.800 245.737,261.267 245.600,243.000 245.600 L 215.200 245.600 215.200 241.227 C 215.200 237.205,215.136 236.834,214.400 236.600 C 213.960 236.460,213.600 236.178,213.600 235.973 C 213.600 235.767,211.824 235.600,209.643 235.600 C 204.793 235.600,205.200 236.482,205.200 225.967 C 205.200 220.656,205.054 217.600,204.800 217.600 C 204.580 217.600,204.400 217.330,204.400 217.000 C 204.400 216.670,204.130 216.400,203.800 216.400 C 203.470 216.400,203.200 216.220,203.200 216.000 C 203.200 215.760,201.600 215.600,199.200 215.600 L 195.200 215.600 195.200 205.000 C 195.200 198.200,195.057 194.400,194.800 194.400 C 194.580 194.400,194.400 193.410,194.400 192.200 C 194.400 190.990,194.220 190.000,194.000 190.000 C 193.780 190.000,193.600 189.590,193.600 189.089 C 193.600 187.548,192.148 186.704,189.127 186.488 C 187.627 186.380,186.400 186.137,186.400 185.946 C 186.400 185.756,186.130 185.600,185.800 185.600 C 185.282 185.600,185.200 184.185,185.200 175.261 L 185.200 164.921 193.056 164.694 C 197.377 164.568,201.022 164.295,201.156 164.087 C 201.290 163.878,201.805 163.582,202.299 163.427 C 202.794 163.273,203.308 162.709,203.442 162.173 C 203.577 161.638,203.847 161.200,204.043 161.200 C 204.240 161.200,204.400 160.210,204.400 159.000 C 204.400 157.790,204.580 156.800,204.800 156.800 C 205.020 156.800,205.200 156.376,205.200 155.859 C 205.200 154.953,205.342 154.909,208.966 154.693 C 213.113 154.445,214.400 153.760,214.400 151.800 C 214.400 151.250,214.580 150.800,214.800 150.800 C 215.064 150.800,215.200 136.867,215.200 109.800 C 215.200 82.733,215.064 68.800,214.800 68.800 C 214.580 68.800,214.400 68.346,214.400 67.790 C 214.400 66.988,214.153 66.731,213.200 66.540 C 212.540 66.408,212.000 66.142,212.000 65.950 C 212.000 65.758,210.470 65.600,208.600 65.600 L 205.200 65.600 205.200 61.600 C 205.200 59.200,205.040 57.600,204.800 57.600 C 204.580 57.600,204.400 57.330,204.400 57.000 C 204.400 56.670,204.130 56.400,203.800 56.400 C 203.470 56.400,203.200 56.220,203.200 56.000 C 203.200 55.451,136.518 55.447,136.333 55.996 " stroke="none" fill="#ffffff" fill-rule="evenodd"></path><path id="path4" d="M136.333 55.996 C 136.260 56.214,135.075 56.510,133.700 56.653 C 132.325 56.797,131.200 57.049,131.200 57.214 C 131.200 57.378,130.728 57.632,130.152 57.776 C 128.823 58.110,128.110 58.823,127.776 60.152 C 127.632 60.728,127.353 61.200,127.157 61.200 C 126.960 61.200,126.798 61.785,126.795 62.500 C 126.782 65.478,126.639 65.600,123.153 65.600 C 121.318 65.600,120.000 65.767,120.000 66.000 C 120.000 66.220,119.473 66.400,118.829 66.400 C 117.335 66.400,116.400 67.335,116.400 68.829 C 116.400 69.473,116.220 70.000,116.000 70.000 C 115.767 70.000,115.600 71.314,115.600 73.142 L 115.600 76.285 112.540 76.516 C 110.857 76.643,109.372 76.907,109.240 77.103 C 109.108 77.298,108.685 77.575,108.300 77.717 C 107.915 77.859,107.600 78.236,107.600 78.554 C 107.600 78.873,107.409 79.197,107.176 79.275 C 106.943 79.352,106.647 80.807,106.518 82.508 C 106.390 84.209,106.131 85.600,105.942 85.600 C 105.754 85.600,105.600 110.800,105.600 141.600 C 105.600 173.390,105.752 197.600,105.950 197.600 C 106.143 197.600,106.380 198.549,106.476 199.708 C 106.651 201.825,107.660 203.600,108.689 203.600 C 108.970 203.600,109.200 203.780,109.200 204.000 C 109.200 204.220,109.805 204.400,110.544 204.400 C 111.283 204.400,112.723 204.514,113.744 204.654 L 115.600 204.909 115.600 217.054 C 115.600 224.885,115.742 229.200,116.000 229.200 C 116.220 229.200,116.400 229.894,116.400 230.742 C 116.400 233.446,117.638 234.314,121.965 234.640 L 125.600 234.915 125.600 243.657 C 125.600 248.510,125.759 252.400,125.957 252.400 C 126.153 252.400,126.421 252.828,126.552 253.352 C 126.854 254.556,127.745 254.788,132.100 254.795 L 135.600 254.800 135.600 263.400 C 135.600 268.130,135.758 272.000,135.950 272.000 C 136.143 272.000,136.403 272.515,136.529 273.144 C 136.796 274.482,137.941 274.788,142.700 274.796 L 145.600 274.800 145.600 279.800 C 145.600 282.550,145.759 284.800,145.953 284.800 C 146.147 284.800,146.433 286.150,146.587 287.800 C 146.742 289.450,147.033 290.800,147.234 290.800 C 147.435 290.800,147.600 291.030,147.600 291.311 C 147.600 292.180,149.241 293.282,150.858 293.499 C 151.706 293.612,152.400 293.862,152.400 294.053 C 152.400 294.244,153.120 294.400,154.000 294.400 L 155.600 294.400 155.600 298.400 C 155.600 300.600,155.760 302.400,155.957 302.400 C 156.153 302.400,156.421 302.828,156.552 303.352 C 156.854 304.556,157.745 304.788,162.100 304.795 L 165.600 304.800 165.600 308.995 C 165.600 314.752,165.647 314.800,171.289 314.800 L 175.600 314.800 175.600 319.557 C 175.600 325.170,175.219 324.800,180.990 324.800 C 185.879 324.800,185.600 324.474,185.600 330.190 C 185.600 335.079,185.274 334.800,190.990 334.800 C 195.879 334.800,195.600 334.474,195.600 340.190 C 195.600 345.094,195.241 344.800,201.233 344.800 L 205.600 344.800 205.600 349.000 C 205.600 351.533,205.759 353.200,206.000 353.200 C 206.220 353.200,206.400 353.462,206.400 353.782 C 206.400 354.793,208.161 354.834,246.029 354.716 C 285.483 354.592,284.400 354.646,284.400 352.829 C 284.400 352.593,284.580 352.400,284.800 352.400 C 285.039 352.400,285.200 350.867,285.200 348.600 L 285.200 344.800 289.339 344.800 C 295.079 344.800,295.200 344.682,295.200 339.053 L 295.200 334.800 299.371 334.800 C 305.488 334.800,304.851 338.250,304.715 305.856 C 304.587 275.048,304.716 276.400,301.911 276.400 C 301.300 276.400,300.800 276.220,300.800 276.000 C 300.800 275.771,299.600 275.600,298.000 275.600 L 295.200 275.600 295.200 272.200 C 295.200 270.200,295.035 268.800,294.800 268.800 C 294.580 268.800,294.400 268.346,294.400 267.790 C 294.400 266.988,294.153 266.731,293.200 266.540 C 292.540 266.408,292.000 266.143,292.000 265.950 C 292.000 265.757,290.470 265.600,288.600 265.600 L 285.200 265.600 285.200 262.200 C 285.200 260.200,285.035 258.800,284.800 258.800 C 284.580 258.800,284.400 258.346,284.400 257.790 C 284.400 256.988,284.153 256.731,283.200 256.540 C 282.540 256.408,282.000 256.142,282.000 255.950 C 282.000 255.757,280.470 255.600,278.600 255.600 L 275.200 255.600 275.200 252.800 C 275.200 251.200,275.029 250.000,274.800 250.000 C 274.580 250.000,274.400 249.552,274.400 249.005 C 274.400 247.618,273.236 246.400,271.911 246.400 C 271.300 246.400,270.800 246.220,270.800 246.000 C 270.800 245.737,261.267 245.600,243.000 245.600 L 215.200 245.600 215.200 241.227 C 215.200 237.205,215.136 236.834,214.400 236.600 C 213.960 236.460,213.600 236.178,213.600 235.973 C 213.600 235.767,211.824 235.600,209.643 235.600 C 204.793 235.600,205.200 236.482,205.200 225.967 C 205.200 220.656,205.054 217.600,204.800 217.600 C 204.580 217.600,204.400 217.330,204.400 217.000 C 204.400 216.670,204.130 216.400,203.800 216.400 C 203.470 216.400,203.200 216.220,203.200 216.000 C 203.200 215.760,201.600 215.600,199.200 215.600 L 195.200 215.600 195.200 205.000 C 195.200 198.200,195.057 194.400,194.800 194.400 C 194.580 194.400,194.400 193.410,194.400 192.200 C 194.400 190.990,194.220 190.000,194.000 190.000 C 193.780 190.000,193.600 189.590,193.600 189.089 C 193.600 187.548,192.148 186.704,189.127 186.488 C 187.627 186.380,186.400 186.137,186.400 185.946 C 186.400 185.756,186.130 185.600,185.800 185.600 C 185.282 185.600,185.200 184.185,185.200 175.261 L 185.200 164.921 193.056 164.694 C 197.377 164.568,201.022 164.295,201.156 164.087 C 201.290 163.878,201.805 163.582,202.299 163.427 C 202.794 163.273,203.308 162.709,203.442 162.173 C 203.577 161.638,203.847 161.200,204.043 161.200 C 204.240 161.200,204.400 160.210,204.400 159.000 C 204.400 157.790,204.580 156.800,204.800 156.800 C 205.020 156.800,205.200 156.376,205.200 155.859 C 205.200 154.953,205.342 154.909,208.966 154.693 C 213.113 154.445,214.400 153.760,214.400 151.800 C 214.400 151.250,214.580 150.800,214.800 150.800 C 215.064 150.800,215.200 136.867,215.200 109.800 C 215.200 82.733,215.064 68.800,214.800 68.800 C 214.580 68.800,214.400 68.346,214.400 67.790 C 214.400 66.988,214.153 66.731,213.200 66.540 C 212.540 66.408,212.000 66.142,212.000 65.950 C 212.000 65.758,210.470 65.600,208.600 65.600 L 205.200 65.600 205.200 61.600 C 205.200 59.200,205.040 57.600,204.800 57.600 C 204.580 57.600,204.400 57.330,204.400 57.000 C 204.400 56.670,204.130 56.400,203.800 56.400 C 203.470 56.400,203.200 56.220,203.200 56.000 C 203.200 55.451,136.518 55.447,136.333 55.996 " stroke="none" fill="#ffffff" fill-rule="evenodd"></path></g></svg>